<svg xmlns="http://www.w3.org/2000/svg"  viewBox="0 0 16 16" width="480px" height="480px"><path fill="#37774e" d="M3.9 4.8C2.7 4.7.6 3.7.6 1.1h1c0 2.3 2.3 2.7 2.4 2.7L3.9 4.8zM12.1 4.8l-.1-1c.1 0 2.4-.3 2.4-2.7h1C15.4 3.7 13.2 4.7 12.1 4.8z"/><path fill="#5e9c76" d="M7.2,11.3c-2.4,0-3.5-0.3-3.8-0.6l-0.1-0.2H3c-0.5,0-1.3-1.1-1.5-1.8c0.3-0.4,1.3-1.1,1.5-1.2h0.1 l0,0c1.2-0.5,3.1-0.8,5-0.8c1.9,0,3.5,0.3,4.6,0.8l0.1,0H13c0.2,0.1,1.1,0.7,1.5,1.2c-0.2,0.7-0.9,1.8-1.5,1.8h-0.2l-0.1,0.1 C12.3,10.9,9.9,11.3,7.2,11.3z"/><path fill="#37774e" d="M8.2,7.1L8.2,7.1c1.8,0,3.3,0.3,4.4,0.8L12.8,8h0.1c0.3,0.1,0.8,0.5,1.1,0.8 C13.7,9.3,13.2,9.9,13,10l-0.3,0l-0.3,0.2c-0.4,0.3-2.8,0.6-5.3,0.6c-2.4,0-3.3-0.3-3.4-0.5L3.5,10H3C2.8,9.9,2.3,9.3,2.1,8.8 C2.4,8.5,2.9,8.1,3.2,8h0l0.2-0.1C4.5,7.4,6.4,7.1,8.2,7.1 M8.2,6.1C6.2,6.1,4.3,6.5,3,7C2.7,7,1.3,8,1,8.6C1.1,9.4,2,11,3,11 c0.5,0.6,2.3,0.8,4.2,0.8c2.5,0,5.3-0.4,5.8-0.8c1,0,1.9-1.6,2-2.4C14.7,8,13.3,7,13,7C11.7,6.4,10,6.1,8.2,6.1L8.2,6.1z"/><path fill="#99c99e" d="M8,15.5c-1.7,0-4-2.3-4.5-4.6V8c0-3.6,2-6.5,4.5-6.5s4.5,2.9,4.5,6.5v2.9C12,13.2,9.7,15.5,8,15.5z"/><path fill="#5e9c76" d="M8,2c2.2,0,4,2.6,4,6v2.9c-0.5,2-2.5,4.1-4,4.1s-3.5-2.1-4-4.1V8C4,4.6,5.8,2,8,2 M8,1 C5.2,1,3,4.1,3,8v3c0.5,2.4,2.9,5,5,5s4.5-2.6,5-5V8C13,4.1,10.8,1,8,1L8,1z"/><path fill="#99c99e" d="M15 0.5A0.5 0.5 0 1 0 15 1.5A0.5 0.5 0 1 0 15 0.5Z"/><path fill="#5e9c76" d="M15,0c-0.6,0-1,0.4-1,1s0.4,1,1,1s1-0.4,1-1S15.6,0,15,0L15,0z"/><path fill="#fff9de" d="M10 6A1 2 0 1 0 10 10 1 2 0 1 0 10 6zM6 6A1 2 0 1 0 6 10 1 2 0 1 0 6 6z"/><path fill="#4b6477" d="M10 9A0.3 0.3 0 1 0 10 9.600000000000001A0.3 0.3 0 1 0 10 9Z"/><path fill="#36404d" d="M10,8.5c-0.4,0-0.8,0.3-0.8,0.8S9.6,10,10,10s0.8-0.3,0.8-0.8S10.4,8.5,10,8.5L10,8.5z"/><g><path fill="#4b6477" d="M6 9A0.3 0.3 0 1 0 6 9.600000000000001A0.3 0.3 0 1 0 6 9Z"/><path fill="#36404d" d="M6,8.5c-0.4,0-0.8,0.3-0.8,0.8S5.6,10,6,10s0.8-0.3,0.8-0.8S6.4,8.5,6,8.5L6,8.5z"/></g><g><path fill="#4b6477" d="M8,12c-1.6,0-2,1-2,1s0.7,0,2,0s2,0,2,0S9.6,12,8,12z"/><path fill="#36404d" d="M8,12c-1.6,0-2,1-2,1s0.7,0,2,0s2,0,2,0S9.6,12,8,12L8,12z"/></g><g><path fill="#99c99e" d="M1 0.5A0.5 0.5 0 1 0 1 1.5A0.5 0.5 0 1 0 1 0.5Z"/><path fill="#5e9c76" d="M1,0C0.4,0,0,0.4,0,1s0.4,1,1,1s1-0.4,1-1S1.6,0,1,0L1,0z"/></g></svg>