<?xml version="1.0" encoding="iso-8859-1"?>
<!-- Generator: Adobe Illustrator 19.0.0, SVG Export Plug-In . SVG Version: 6.00 Build 0)  -->
<svg version="1.1" id="Layer_1" xmlns="http://www.w3.org/2000/svg" xmlns:xlink="http://www.w3.org/1999/xlink" x="0px" y="0px"
	 viewBox="0 0 512 512" style="enable-background:new 0 0 512 512;" xml:space="preserve">
<polygon style="fill:#BE9B82;" points="167.724,282.483 97.103,282.483 97.103,298.339 70.622,360.124 70.622,406.072 
	88.277,406.072 88.277,363.744 107.969,317.793 167.724,317.793 "/>
<rect x="282.483" y="414.897" style="fill:#D2AF91;" width="17.655" height="70.621"/>
<path style="fill:#BE9B82;" d="M273.655,494.345v-26.483c0-4.875,3.953-8.828,8.828-8.828h17.655c4.875,0,8.828,3.953,8.828,8.828
	v8.828l35.31,17.655V512h-70.621c-4.875,0-8.828-3.953-8.828-8.828C264.828,498.297,268.78,494.345,273.655,494.345z"/>
<g>
	<path style="fill:#D2AF91;" d="M308.966,512h35.31c4.875,0,8.828-3.953,8.828-8.828l0,0c0-4.875-3.953-8.828-8.828-8.828h-35.31
		c-4.875,0-8.828,3.953-8.828,8.828l0,0C300.138,508.047,304.09,512,308.966,512z"/>
	<rect x="211.862" y="414.897" style="fill:#D2AF91;" width="17.655" height="70.621"/>
</g>
<g>
	<path style="fill:#BE9B82;" d="M185.379,388.414v20.12c0,3.799,2.432,7.172,6.036,8.374l35.31,11.77
		c5.716,1.906,11.619-2.349,11.619-8.374v-5.408h35.31v5.407c0,6.025,5.903,10.28,11.619,8.374l35.31-11.77
		c3.605-1.202,6.036-4.575,6.036-8.374v-20.119H185.379z"/>
	<polygon style="fill:#BE9B82;" points="414.897,298.333 414.897,282.483 344.276,282.483 344.276,317.793 404.034,317.793 
		423.725,363.744 423.725,406.072 441.38,406.072 441.38,360.124 	"/>
</g>
<g>
	<circle style="fill:#D2AF91;" cx="406.069" cy="300.138" r="22.069"/>
	<circle style="fill:#D2AF91;" cx="432.552" cy="361.931" r="17.655"/>
</g>
<circle style="fill:#BE9B82;" cx="406.069" cy="300.138" r="8.828"/>
<rect x="414.897" y="406.069" style="fill:#EDC6A5;" width="35.31" height="26.483"/>
<g>
	<path style="fill:#D2AF91;" d="M414.897,450.207c4.879,0,8.828-3.948,8.828-8.828v-17.655c0-4.871,3.957-8.828,8.828-8.828
		c4.871,0,8.828,3.957,8.828,8.828v17.655c0,4.879,3.948,8.828,8.828,8.828c4.879,0,8.828-3.948,8.828-8.828v-17.655
		c0-14.603-11.88-26.483-26.483-26.483c-14.603,0-26.483,11.88-26.483,26.483v17.655
		C406.069,446.259,410.017,450.207,414.897,450.207z"/>
	<path style="fill:#D2AF91;" d="M175.448,70.621H160c-0.609,0-1.103-0.494-1.103-1.103V18.759c0-0.609,0.494-1.103,1.103-1.103
		h15.448c0.609,0,1.103,0.494,1.103,1.103v50.759C176.552,70.126,176.057,70.621,175.448,70.621z"/>
</g>
<circle style="fill:#FFE0CC;" cx="167.724" cy="17.655" r="17.655"/>
<path style="fill:#FFD6B3;" d="M158.897,17.655c0-8.217,5.64-15.062,13.241-17.031C170.719,0.257,169.258,0,167.724,0
	c-9.75,0-17.655,7.904-17.655,17.655c0,9.75,7.905,17.655,17.655,17.655c1.534,0,2.995-0.257,4.414-0.625
	C164.536,32.717,158.897,25.873,158.897,17.655z"/>
<path style="fill:#D2AF91;" d="M352,70.621h-15.448c-0.609,0-1.103-0.494-1.103-1.103V18.759c0-0.609,0.494-1.103,1.103-1.103H352
	c0.609,0,1.103,0.494,1.103,1.103v50.759C353.103,70.126,352.609,70.621,352,70.621z"/>
<circle style="fill:#FFE0CC;" cx="344.276" cy="17.655" r="17.655"/>
<path style="fill:#FFD6B3;" d="M335.448,17.655c0-8.217,5.64-15.062,13.241-17.031C347.271,0.257,345.81,0,344.276,0
	c-9.75,0-17.655,7.904-17.655,17.655c0,9.75,7.905,17.655,17.655,17.655c1.534,0,2.995-0.257,4.414-0.625
	C341.088,32.717,335.448,25.873,335.448,17.655z"/>
<path style="fill:#D2AF91;" d="M317.793,397.241H194.207c-14.626,0-26.483-11.857-26.483-26.483v-37.517h176.552v37.517
	C344.276,385.385,332.419,397.241,317.793,397.241z"/>
<path style="fill:#FFEAE0;" d="M361.931,264.828H150.069c-19.501,0-35.31-15.809-35.31-35.31V88.276
	c0-19.501,15.809-35.31,35.31-35.31h211.862c19.501,0,35.31,15.809,35.31,35.31v141.241
	C397.241,249.018,381.432,264.828,361.931,264.828z"/>
<path style="fill:#FFE0CC;" d="M256,220.69c-52.531,0-101.198-12.328-141.241-33.284v42.112c0,19.501,15.809,35.31,35.31,35.31
	h211.862c19.501,0,35.31-15.809,35.31-35.31v-42.112C357.198,208.362,308.531,220.69,256,220.69z"/>
<g>
	<path style="fill:#6E4141;" d="M198.621,176.552L198.621,176.552c-7.313,0-13.241-5.929-13.241-13.241v-8.828
		c0-7.313,5.929-13.241,13.241-13.241l0,0c7.313,0,13.241,5.929,13.241,13.241v8.828
		C211.862,170.623,205.933,176.552,198.621,176.552z"/>
	<path style="fill:#6E4141;" d="M313.379,176.552L313.379,176.552c-7.313,0-13.241-5.929-13.241-13.241v-8.828
		c0-7.313,5.929-13.241,13.241-13.241l0,0c7.313,0,13.241,5.929,13.241,13.241v8.828
		C326.621,170.623,320.692,176.552,313.379,176.552z"/>
</g>
<g>
	<path style="fill:#FFD6B3;" d="M256,220.69c-52.531,0-101.198-12.328-141.241-33.284v15.629
		c40.043,20.957,88.711,33.284,141.241,33.284s101.198-12.328,141.241-33.284v-15.629C357.198,208.362,308.531,220.69,256,220.69z"
		/>
	<path style="fill:#FFD6B3;" d="M132.414,88.276v70.621c0,4.875,3.953,8.828,8.828,8.828h8.828c4.875,0,8.828-3.953,8.828-8.828
		v-2.707c0-20.747,15.168-39.275,35.822-41.245c23.692-2.259,43.626,16.311,43.626,39.538v4.414c0,4.875,3.953,8.828,8.828,8.828
		h17.655c4.875,0,8.828-3.953,8.828-8.828v-2.707c0-20.747,15.168-39.275,35.822-41.245c23.692-2.259,43.626,16.311,43.626,39.538
		v4.414c0,4.875,3.953,8.828,8.828,8.828h8.828c4.875,0,8.828-3.953,8.828-8.828V88.276c0-9.751-7.904-17.655-17.655-17.655H150.069
		C140.318,70.621,132.414,78.525,132.414,88.276z"/>
</g>
<path style="fill:#EDC6A5;" d="M150.069,291.31v35.31c0,9.751,7.904,17.655,17.655,17.655h54.115c4.182,0,7.514,3.008,8.625,7.04
	c3.082,11.209,13.347,19.443,25.536,19.443s22.454-8.234,25.537-19.443c1.109-4.032,4.442-7.04,8.625-7.04h54.114
	c9.751,0,17.655-7.904,17.655-17.655v-35.31H150.069z"/>
<path style="fill:#D2AF91;" d="M105.931,194.207h-8.828c-4.875,0-8.828-3.953-8.828-8.828v-35.31c0-4.875,3.953-8.828,8.828-8.828
	h8.828c4.875,0,8.828,3.953,8.828,8.828v35.31C114.759,190.254,110.806,194.207,105.931,194.207z"/>
<path style="fill:#EDC6A5;" d="M105.931,167.724h-8.828c-4.875,0-8.828-3.953-8.828-8.828v-8.828c0-4.875,3.953-8.828,8.828-8.828
	h8.828c4.875,0,8.828,3.953,8.828,8.828v8.828C114.759,163.772,110.806,167.724,105.931,167.724z"/>
<path style="fill:#D2AF91;" d="M414.897,194.207h-8.828c-4.875,0-8.828-3.953-8.828-8.828v-35.31c0-4.875,3.953-8.828,8.828-8.828
	h8.828c4.875,0,8.828,3.953,8.828,8.828v35.31C423.724,190.254,419.772,194.207,414.897,194.207z"/>
<path style="fill:#EDC6A5;" d="M414.897,167.724h-8.828c-4.875,0-8.828-3.953-8.828-8.828v-8.828c0-4.875,3.953-8.828,8.828-8.828
	h8.828c4.875,0,8.828,3.953,8.828,8.828v8.828C423.724,163.772,419.772,167.724,414.897,167.724z"/>
<path style="fill:#D2AF91;" d="M361.931,300.138H150.069c-4.875,0-8.828-3.953-8.828-8.828l0,0c0-4.875,3.953-8.828,8.828-8.828
	h211.862c4.875,0,8.828,3.953,8.828,8.828l0,0C370.759,296.185,366.806,300.138,361.931,300.138z"/>
<rect x="211.862" y="264.828" style="fill:#BE9B82;" width="88.276" height="17.655"/>
<g>
	<circle style="fill:#D2AF91;" cx="105.931" cy="300.138" r="22.069"/>
	<circle style="fill:#D2AF91;" cx="79.448" cy="361.931" r="17.655"/>
</g>
<circle style="fill:#BE9B82;" cx="105.931" cy="300.138" r="8.828"/>
<rect x="61.793" y="406.069" style="fill:#EDC6A5;" width="35.31" height="26.483"/>
<path style="fill:#D2AF91;" d="M97.103,450.207c-4.879,0-8.828-3.948-8.828-8.828v-17.655c0-4.871-3.957-8.828-8.828-8.828
	c-4.871,0-8.828,3.957-8.828,8.828v17.655c0,4.879-3.948,8.828-8.828,8.828s-8.828-3.948-8.828-8.828v-17.655
	c0-14.603,11.88-26.483,26.483-26.483s26.483,11.88,26.483,26.483v17.655C105.931,446.259,101.983,450.207,97.103,450.207z"/>
<circle style="fill:#6E4141;" cx="256" cy="344.276" r="17.655"/>
<path style="fill:#BE9B82;" d="M238.345,494.345v-26.483c0-4.875-3.953-8.828-8.828-8.828h-17.655c-4.875,0-8.828,3.953-8.828,8.828
	v8.828l-35.31,17.655V512h70.621c4.875,0,8.828-3.953,8.828-8.828C247.172,498.297,243.22,494.345,238.345,494.345z"/>
<path style="fill:#D2AF91;" d="M203.034,512h-35.31c-4.875,0-8.828-3.953-8.828-8.828l0,0c0-4.875,3.953-8.828,8.828-8.828h35.31
	c4.875,0,8.828,3.953,8.828,8.828l0,0C211.862,508.047,207.91,512,203.034,512z"/>
<g>
</g>
<g>
</g>
<g>
</g>
<g>
</g>
<g>
</g>
<g>
</g>
<g>
</g>
<g>
</g>
<g>
</g>
<g>
</g>
<g>
</g>
<g>
</g>
<g>
</g>
<g>
</g>
<g>
</g>
</svg>
